<svg xmlns="http://www.w3.org/2000/svg" viewBox="0 0 256 256">
  <defs>
    <linearGradient id="body" x1="0" y1="0" x2="1" y2="1">
      <stop offset="0%" stop-color="#7c3aed"/>
      <stop offset="100%" stop-color="#4f46e5"/>
    </linearGradient>
  </defs>
  <rect width="256" height="256" rx="48" fill="#0f172a"/>
  <path d="M44 176c-16 0-24-12-22-38 2-28 10-52 20-62 8-8 16-10 26-6l40 12h40l40-12c10-4 18-2 26 6 10 10 18 34 20 62 2 26-6 38-22 38-12 0-20-8-28-26-4-10-10-14-18-14H90c-8 0-14 4-18 14-8 18-16 26-28 26z"
        fill="url(#body)"/>
  <circle cx="86" cy="128" r="10" fill="#e2e8f0"/>
  <circle cx="120" cy="120" r="10" fill="#e2e8f0"/>
  <circle cx="136" cy="142" r="10" fill="#e2e8f0"/>
  <circle cx="170" cy="128" r="10" fill="#e2e8f0"/>
  <path d="M186 60l30-30M188 46l28 28" stroke="#f59e0b" stroke-width="8" stroke-linecap="round"/>
</svg>